{"title":"Age Of Heroes *2011* [DVDRip.XviD-miguel] [ENG]","uid":6471493,"size":1707186712,"categoryP":"video","categoryS":"movies","magnet":"?xt=urn:btih:3be33c8d03b1e52f60a6957d31d412aaf1a5c7ae&amp;dn=Age+Of+Heroes+%2A2011%2A+%5BDVDRip.XviD-miguel%5D+%5BENG%5D&amp;tr=udp%3A%2F%2Ftracker.openbittorrent.com%3A80&amp;tr=udp%3A%2F%2Fopen.demonii.com%3A1337&amp;tr=udp%3A%2F%2Ftracker.coppersurfer.tk%3A6969&amp;tr=udp%3A%2F%2Fexodus.desync.com%3A6969","seeders":0,"leechers":1,"uploader":"miguel1983","files":-1,"time":1308154931,"description":" &lt;a href=&quot;http://img810.imageshack.us/img810/7315/ageheaqnhxg.jpg&quot; rel=&quot;nofollow&quot; target=&quot;_NEW&quot;&gt;http://img810.imageshack.us/img810/7315/ageheaqnhxg.jpg&lt;/a&gt;\n\nCountry.......: United Kingdom\nGenre.........: War\nDate release..: 20.05.2011 [World]\nDirector......: Adrian Vitoria\nWriters.......: Adrian Vitoria, Ed Scates\nDuration......: 90 min.\nMore..........: http://www.imdb.com/title/tt1590950\nTrailer.......: http://www.imdb.com/video/imdb/vi890019097\nTrailer.......:\n\nPilot :\nThe true story of the formation of Ian Fleming's 30 Commando unit, a precursor for the elite forces in the U.K. \n\nCats :\nSean Bean   \t ...  \tJones\nIzabella Miko \t... \tJensen\nDanny Dyer \t... \tRains\nJames D Arcy \t... \tIan Fleming\nSebastian Street \t... \tColonel Archer\nWilliam Houston \t... \tMac\nDaniel Brocklebank \t... \tRMP Sergeant Hamilton\nJohn Dagleish \t... \tRoger Rollright\nAksel Hennie \t... \tSteinar\nGuy Burnet \t... \tRiley\nStephen Walters \t... \tBrightling\nRosie Fellner \t... \tSophie Holbrook\nJay Simpson \t... \tRMP Company Sergeant Major\nDavid Gwillim \t... \tSS Mountain Troops\nTheo Barklem Biggs \t... \tJimmy \n\nData Technical :\n!!! SAMPLE !!!\nAudio.....: English\nSubtitles.: None\nFormat                           : AVI\nFormat/Info                      : Audio Video Interleave\nFile size                        : 1.58 GiB\nDuration                         : 1h 29mn\nOverall bit rate                 : 2 524 Kbps\nWriting library                  : VirtualDub build 32706/release\nVideo\nID                               : 0\nFormat                           : MPEG-4 Visual\nFormat profile                   : Advanced Simple@L5\nFormat settings, BVOP            : Yes\nFormat settings, QPel            : No\nFormat settings, GMC             : No warppoints\nFormat settings, Matrix          : Default (MPEG)\nMuxing mode                      : Packed bitstream\nCodec ID                         : XVID\nCodec ID/Hint                    : XviD\nDuration                         : 1h 29mn\nBit rate                         : 2 066 Kbps\nWidth                            : 720 pixels\nHeight                           : 304 pixels\nDisplay aspect ratio             : 2.35:1\nFrame rate                       : 25.000 fps\nColor space                      : YUV\nChroma subsampling               : 4:2:0\nBit depth                        : 8 bits\nScan type                        : Progressive\nBits/(Pixel*Frame)               : 0.378\nStream size                      : 1.30 GiB (82%)\nWriting library                  : XviD 61\nAudio\nID                               : 1\nFormat                           : AC-3\nFormat/Info                      : Audio Coding 3\nMode extension                   : CM (complete main)\nCodec ID                         : 2000\nDuration                         : 1h 29mn\nBit rate mode                    : Constant\nBit rate                         : 448 Kbps\nChannel(s)                       : 6 channels\nChannel positions                : Front: L C R, Side: L R, LFE\nSampling rate                    : 48.0 KHz\nBit depth                        : 16 bits\nStream size                      : 288 MiB (18%)\nAlignment                        : Aligned on interleaves\nInterleave, duration             : 40 ms (1.00 video frame)\n\nScreen : &lt;a href=&quot;\nhttp://img52.imageshack.us/img52/6774/ageofheroes2011s1.jpg&quot; rel=&quot;nofollow&quot; target=&quot;_NEW&quot;&gt;\nhttp://img52.imageshack.us/img52/6774/ageofheroes2011s1.jpg&lt;/a&gt; &lt;a href=&quot;\nhttp://img714.imageshack.us/img714/9373/ageofheroes2011s2.jpg&quot; rel=&quot;nofollow&quot; target=&quot;_NEW&quot;&gt;\nhttp://img714.imageshack.us/img714/9373/ageofheroes2011s2.jpg&lt;/a&gt; &lt;a href=&quot;\nhttp://img135.imageshack.us/img135/2120/ageofheroes2011s3.jpg&quot; rel=&quot;nofollow&quot; target=&quot;_NEW&quot;&gt;\nhttp://img135.imageshack.us/img135/2120/ageofheroes2011s3.jpg&lt;/a&gt; &lt;a href=&quot;\nhttp://img687.imageshack.us/img687/9232/ageofheroes2011s4.jpg&quot; rel=&quot;nofollow&quot; target=&quot;_NEW&quot;&gt;\nhttp://img687.imageshack.us/img687/9232/ageofheroes2011s4.jpg&lt;/a&gt; &lt;a href=&quot;\nhttp://img811.imageshack.us/img811/8403/ageofheroes2011s5.jpg&quot; rel=&quot;nofollow&quot; target=&quot;_NEW&quot;&gt;\nhttp://img811.imageshack.us/img811/8403/ageofheroes2011s5.jpg&lt;/a&gt;","torrent":{"xt":"urn:btih:3be33c8d03b1e52f60a6957d31d412aaf1a5c7ae","amp;dn":"Age+Of+Heroes+%2A2011%2A+%5BDVDRip.XviD-miguel%5D+%5BENG%5D","amp;tr":["udp%3A%2F%2Ftracker.openbittorrent.com%3A80","udp%3A%2F%2Fopen.demonii.com%3A1337","udp%3A%2F%2Ftracker.coppersurfer.tk%3A6969","udp%3A%2F%2Fexodus.desync.com%3A6969"],"infoHash":"3be33c8d03b1e52f60a6957d31d412aaf1a5c7ae","infoHashBuffer":{"type":"Buffer","data":[59,227,60,141,3,177,229,47,96,166,149,125,49,212,18,170,241,165,199,174]},"announce":[],"urlList":[]}}